<svg width="96" height="96" viewBox="0 0 96 96" fill="none" xmlns="http://www.w3.org/2000/svg">
<rect width="96" height="96" fill="#333333"/>
<path d="M10.6335 48.0668L12.0189 26.936L82.5675 24.6L85.3383 47.1112L10.6335 48.0668Z" fill="#828282"/>
<path d="M19.5657 34.7061L25.3204 35.8742C24.7875 36.7236 24.4678 37.6793 24.4678 38.4226C24.5744 40.3339 26.1729 42.9885 28.9437 42.9885H29.0503C31.0751 42.8824 32.6736 42.2452 33.6327 41.0772C34.3787 40.2277 34.6984 39.0597 34.6984 37.9979L41.1991 39.3783L41.8385 35.0247L20.0985 30.4587L19.5657 34.7061Z" fill="#333333"/>
<path d="M75.9405 29.2906L54.2004 33.8566L54.8399 38.2102L61.3405 36.8298C61.6602 38.7411 62.4062 40.2277 63.6851 41.0772C64.6442 41.7143 65.8164 42.0328 66.8821 41.8205C68.0544 41.7143 71.6777 40.7586 71.1449 36.0865C71.1449 35.6617 70.9317 35.237 70.7186 34.8123L76.5799 33.538L75.9405 29.2906Z" fill="#333333"/>
</svg>
