<svg width="14" height="14" viewBox="0 0 14 14" fill="none" xmlns="http://www.w3.org/2000/svg">
<path d="M10.3335 1.99984H13.0002C13.177 1.99984 13.3465 2.07008 13.4716 2.1951C13.5966 2.32012 13.6668 2.48969 13.6668 2.6665V13.3332C13.6668 13.51 13.5966 13.6796 13.4716 13.8046C13.3465 13.9296 13.177 13.9998 13.0002 13.9998H1.00016C0.823352 13.9998 0.653782 13.9296 0.528758 13.8046C0.403734 13.6796 0.333496 13.51 0.333496 13.3332V2.6665C0.333496 2.48969 0.403734 2.32012 0.528758 2.1951C0.653782 2.07008 0.823352 1.99984 1.00016 1.99984H3.66683V0.666504H5.00016V1.99984H9.00016V0.666504H10.3335V1.99984ZM9.00016 3.33317H5.00016V4.6665H3.66683V3.33317H1.66683V5.99984H12.3335V3.33317H10.3335V4.6665H9.00016V3.33317ZM12.3335 7.33317H1.66683V12.6665H12.3335V7.33317Z" fill="#FCFCFC"/>
</svg>
