<svg width="15" height="15" viewBox="0 0 15 15" fill="none" xmlns="http://www.w3.org/2000/svg">
<path d="M2.66688 3.27605L0.504883 1.11472L1.44822 0.171387L3.60955 2.33339H13.7709C13.8748 2.33338 13.9773 2.35766 14.0701 2.4043C14.163 2.45093 14.2437 2.51863 14.3057 2.60198C14.3678 2.68534 14.4095 2.78204 14.4275 2.88438C14.4455 2.98671 14.4394 3.09185 14.4095 3.19139L12.8096 8.52472C12.7684 8.66211 12.684 8.78256 12.569 8.86819C12.4539 8.95382 12.3143 9.00006 12.1709 9.00005H4.00022V10.3334H11.3335V11.6667H3.33355C3.15674 11.6667 2.98717 11.5965 2.86215 11.4715C2.73712 11.3464 2.66688 11.1769 2.66688 11.0001V3.27605ZM4.00022 3.66672V7.66672H11.6749L12.8749 3.66672H4.00022ZM3.66688 14.3334C3.40167 14.3334 3.14731 14.228 2.95978 14.0405C2.77224 13.853 2.66688 13.5986 2.66688 13.3334C2.66688 13.0682 2.77224 12.8138 2.95978 12.6263C3.14731 12.4387 3.40167 12.3334 3.66688 12.3334C3.9321 12.3334 4.18645 12.4387 4.37399 12.6263C4.56153 12.8138 4.66688 13.0682 4.66688 13.3334C4.66688 13.5986 4.56153 13.853 4.37399 14.0405C4.18645 14.228 3.9321 14.3334 3.66688 14.3334ZM11.6669 14.3334C11.4017 14.3334 11.1473 14.228 10.9598 14.0405C10.7722 13.853 10.6669 13.5986 10.6669 13.3334C10.6669 13.0682 10.7722 12.8138 10.9598 12.6263C11.1473 12.4387 11.4017 12.3334 11.6669 12.3334C11.9321 12.3334 12.1865 12.4387 12.374 12.6263C12.5615 12.8138 12.6669 13.0682 12.6669 13.3334C12.6669 13.5986 12.5615 13.853 12.374 14.0405C12.1865 14.228 11.9321 14.3334 11.6669 14.3334Z" fill="#FCFCFC"/>
</svg>
