<svg width="14" height="14" viewBox="0 0 14 14" fill="none" xmlns="http://www.w3.org/2000/svg">
<path d="M7.00016 13.6668C3.31816 13.6668 0.333496 10.6822 0.333496 7.00016C0.333496 3.31816 3.31816 0.333496 7.00016 0.333496C10.6822 0.333496 13.6668 3.31816 13.6668 7.00016C13.6668 10.6822 10.6822 13.6668 7.00016 13.6668ZM7.00016 12.3335C8.41465 12.3335 9.77121 11.7716 10.7714 10.7714C11.7716 9.77121 12.3335 8.41465 12.3335 7.00016C12.3335 5.58567 11.7716 4.22912 10.7714 3.22893C9.77121 2.22873 8.41465 1.66683 7.00016 1.66683C5.58567 1.66683 4.22912 2.22873 3.22893 3.22893C2.22873 4.22912 1.66683 5.58567 1.66683 7.00016C1.66683 8.41465 2.22873 9.77121 3.22893 10.7714C4.22912 11.7716 5.58567 12.3335 7.00016 12.3335V12.3335ZM7.66683 7.00016H10.3335V8.3335H6.3335V3.66683H7.66683V7.00016Z" fill="#FCFCFC"/>
</svg>
