<svg width="14" height="12" viewBox="0 0 14 12" fill="none" xmlns="http://www.w3.org/2000/svg">
<path d="M6.66667 8.33317H5.33333C4.23973 8.33275 3.16682 8.63127 2.23058 9.19644C1.29435 9.76161 0.530401 10.5719 0.0213343 11.5398C0.00702532 11.3602 -9.15218e-05 11.18 8.88408e-07 10.9998C8.88408e-07 7.31784 2.98467 4.33317 6.66667 4.33317V0.666504L13.6667 6.33317L6.66667 11.9998V8.33317ZM5.33333 6.99984H8V9.20517L11.5473 6.33317L8 3.46117V5.6665H6.66667C5.90017 5.66564 5.14253 5.83038 4.44559 6.14945C3.74866 6.46852 3.12888 6.93439 2.62867 7.51517C3.48955 7.17398 4.40731 6.99912 5.33333 6.99984Z" fill="#FCFCFC"/>
</svg>
