<svg width="22" height="22" viewBox="0 0 22 22" fill="none" xmlns="http://www.w3.org/2000/svg">
<path d="M11 2.51488L2.51501 10.9999L11 19.4849L19.485 10.9999L11 2.51488ZM11.707 0.392884L21.607 10.2929C21.7945 10.4804 21.8998 10.7347 21.8998 10.9999C21.8998 11.265 21.7945 11.5194 21.607 11.7069L11.707 21.6069C11.5195 21.7944 11.2652 21.8997 11 21.8997C10.7348 21.8997 10.4805 21.7944 10.293 21.6069L0.393006 11.7069C0.205535 11.5194 0.10022 11.265 0.10022 10.9999C0.10022 10.7347 0.205535 10.4804 0.393006 10.2929L10.293 0.392884C10.4805 0.205413 10.7348 0.100098 11 0.100098C11.2652 0.100098 11.5195 0.205413 11.707 0.392884ZM12 8.99988V6.49988L15.5 9.99988L12 13.4999V10.9999H9.00001V13.9999H7.00001V9.99988C7.00001 9.73467 7.10536 9.48031 7.2929 9.29278C7.48044 9.10524 7.73479 8.99988 8.00001 8.99988H12Z" fill="#FCFCFC"/>
</svg>
