<svg width="25" height="24" viewBox="0 0 25 24" fill="none" xmlns="http://www.w3.org/2000/svg">
<path d="M23.2885 11.4895L13.0105 1.21147C12.7286 0.92951 12.2714 0.92951 11.9895 1.21147L1.71147 11.4895C1.42951 11.7714 1.42951 12.2285 1.71147 12.5105L11.9895 22.7885C12.2714 23.0705 12.7286 23.0705 13.0105 22.7885L23.2885 12.5105C23.5705 12.2286 23.5705 11.7714 23.2885 11.4895ZM12.5 2.74305L18.7839 9.02694L16.8319 10.9789L10.548 4.69504L12.5 2.74305ZM15.8109 12L12.5 15.3109L9.18904 12L12.5 8.68908L15.8109 12ZM3.24305 12L9.52694 5.71607L11.4789 7.66805L5.195 13.952L3.24305 12ZM12.5 21.2569L6.21607 14.9731L8.16805 13.0211L14.452 19.305L12.5 21.2569ZM15.473 18.2839L13.521 16.3319L19.8049 10.0481L21.7569 12L15.473 18.2839Z" fill="#B3B3B3"/>
</svg>
