<svg width="20" height="20" viewBox="0 0 20 20" fill="none" xmlns="http://www.w3.org/2000/svg">
<path d="M2.5 20C1.95 20 1.47933 19.8043 1.088 19.413C0.696 19.021 0.5 18.55 0.5 18V2C0.5 1.45 0.696 0.979 1.088 0.587C1.47933 0.195667 1.95 0 2.5 0H10.5L16.5 6V10H14.5V7H9.5V2H2.5V18H8.5V20H2.5ZM14.8 12.525L15.875 13.6L12 17.45V18.5H13.05L16.925 14.65L17.975 15.7L13.675 20H10.5V16.825L14.8 12.525ZM17.975 15.7L14.8 12.525L16.25 11.075C16.4333 10.8917 16.6667 10.8 16.95 10.8C17.2333 10.8 17.4667 10.8917 17.65 11.075L19.425 12.85C19.6083 13.0333 19.7 13.2667 19.7 13.55C19.7 13.8333 19.6083 14.0667 19.425 14.25L17.975 15.7Z" fill="#FCFCFC"/>
</svg>
