<svg width="12" height="14" viewBox="0 0 12 14" fill="none" xmlns="http://www.w3.org/2000/svg">
<path d="M8 1.66666H1.33333V12.3333H10.6667V4.33333H8V1.66666ZM0 0.994662C0 0.629328 0.298 0.333328 0.666 0.333328H8.66667L12 3.66666V12.9953C12.0006 13.0829 11.984 13.1697 11.951 13.2508C11.9181 13.3319 11.8695 13.4058 11.808 13.4681C11.7466 13.5304 11.6734 13.5801 11.5928 13.6141C11.5121 13.6482 11.4255 13.6661 11.338 13.6667H0.662C0.486919 13.6654 0.319345 13.5954 0.195478 13.4717C0.0716119 13.3479 0.00139643 13.1804 0 13.0053V0.994662ZM6.66667 7V9.66666H5.33333V7H3.33333L6 4.33333L8.66667 7H6.66667Z" fill="#FCFCFC"/>
</svg>
