<svg width="25" height="24" viewBox="0 0 25 24" fill="none" xmlns="http://www.w3.org/2000/svg">
<g clip-path="url(#clip0_3746_9286)">
<path d="M21.5 19.9998C21.5 20.265 21.3946 20.5194 21.2071 20.7069C21.0196 20.8944 20.7652 20.9998 20.5 20.9998H4.5C4.23478 20.9998 3.98043 20.8944 3.79289 20.7069C3.60536 20.5194 3.5 20.265 3.5 19.9998V9.48978C3.49989 9.3374 3.53462 9.187 3.60152 9.05008C3.66841 8.91317 3.76572 8.79335 3.886 8.69978L11.886 2.47778C12.0615 2.34123 12.2776 2.26709 12.5 2.26709C12.7224 2.26709 12.9385 2.34123 13.114 2.47778L21.114 8.69978C21.2343 8.79335 21.3316 8.91317 21.3985 9.05008C21.4654 9.187 21.5001 9.3374 21.5 9.48978V19.9998ZM19.5 18.9998V9.97778L12.5 4.53378L5.5 9.97778V18.9998H19.5Z" fill="#B3B3B3"/>
</g>
<defs>
<clipPath id="clip0_3746_9286">
<rect width="24" height="24" fill="white" transform="translate(0.5)"/>
</clipPath>
</defs>
</svg>
