<svg width="19" height="19" viewBox="0 0 19 19" fill="#fcfcfc" xmlns="http://www.w3.org/2000/svg">
<path d="M16.2503 15.367H13.5848V11.1902C13.5848 10.1942 13.5646 8.91245 12.1958 8.91245C10.8061 8.91245 10.5938 9.99625 10.5938 11.1167V15.367H7.92826V6.77795H10.4888V7.94865H10.5233C10.8811 7.27365 11.7511 6.5612 13.0508 6.5612C15.7516 6.5612 16.2511 8.33875 16.2511 10.6525L16.2503 15.367ZM4.91779 5.6027C4.05979 5.6027 3.37054 4.9082 3.37054 4.05395C3.37054 3.20045 4.06054 2.5067 4.91779 2.5067C5.77279 2.5067 6.46579 3.20045 6.46579 4.05395C6.46579 4.9082 5.77204 5.6027 4.91779 5.6027ZM6.25429 15.367H3.58129V6.77795H6.25429V15.367ZM17.5838 0.0279541H2.24329C1.50904 0.0279541 0.915039 0.608454 0.915039 1.3247V16.7313C0.915039 17.4482 1.50904 18.028 2.24329 18.028H17.5816C18.3151 18.028 18.9151 17.4482 18.9151 16.7313V1.3247C18.9151 0.608454 18.3151 0.0279541 17.5816 0.0279541H17.5838Z" fill="white"/>
</svg>
