<svg width="37" height="15" viewBox="0 0 37 15" fill="none" xmlns="http://www.w3.org/2000/svg">
<path d="M16.357 11H12V4H13.466V9.688H16.356V11H16.357ZM18.797 11H17.34V4H18.796V11H18.797ZM23.891 11H22.067L19.432 4H21.082L22.979 9.373L24.875 4H26.525L23.891 11ZM32 11H27.161V4H32V5.312H28.617V6.782H31.928V8.093H28.618V9.688H32V11Z" fill="#E60000"/>
<path d="M6.5 9C7.32843 9 8 8.32843 8 7.5C8 6.67157 7.32843 6 6.5 6C5.67157 6 5 6.67157 5 7.5C5 8.32843 5.67157 9 6.5 9Z" fill="#E60000"/>
<path d="M34.5 0.5H2.5C1.39543 0.5 0.5 1.39543 0.5 2.5V12.5C0.5 13.6046 1.39543 14.5 2.5 14.5H34.5C35.6046 14.5 36.5 13.6046 36.5 12.5V2.5C36.5 1.39543 35.6046 0.5 34.5 0.5Z" stroke="#E60000"/>
</svg>
