<svg width="10" height="10" viewBox="0 0 10 10" fill="none" xmlns="http://www.w3.org/2000/svg">
<path d="M8.5 4H9C9.13261 4 9.25979 4.05268 9.35355 4.14645C9.44732 4.24021 9.5 4.36739 9.5 4.5V9.5C9.5 9.63261 9.44732 9.75979 9.35355 9.85355C9.25979 9.94732 9.13261 10 9 10H1C0.867392 10 0.740215 9.94732 0.646447 9.85355C0.552678 9.75979 0.5 9.63261 0.5 9.5V4.5C0.5 4.36739 0.552678 4.24021 0.646447 4.14645C0.740215 4.05268 0.867392 4 1 4H1.5V3.5C1.5 3.04037 1.59053 2.58525 1.76642 2.16061C1.94231 1.73597 2.20012 1.35013 2.52513 1.02513C2.85013 0.700121 3.23597 0.442313 3.66061 0.266422C4.08525 0.0905301 4.54037 0 5 0C5.45963 0 5.91475 0.0905301 6.33939 0.266422C6.76403 0.442313 7.14987 0.700121 7.47487 1.02513C7.79988 1.35013 8.05769 1.73597 8.23358 2.16061C8.40947 2.58525 8.5 3.04037 8.5 3.5V4ZM1.5 5V9H8.5V5H1.5ZM4.5 6H5.5V8H4.5V6ZM7.5 4V3.5C7.5 2.83696 7.23661 2.20107 6.76777 1.73223C6.29893 1.26339 5.66304 1 5 1C4.33696 1 3.70107 1.26339 3.23223 1.73223C2.76339 2.20107 2.5 2.83696 2.5 3.5V4H7.5Z" fill="#FCFCFC"/>
</svg>
