<svg width="17" height="16" viewBox="0 0 17 16" fill="none" xmlns="http://www.w3.org/2000/svg">
<g clip-path="url(#clip0_6902_4411)">
<g clip-path="url(#clip1_6902_4411)">
<path d="M5.67664 12.8167C6.0694 12.6435 6.50986 12.6109 6.9221 12.7241C7.43546 12.8642 7.96533 12.9346 8.50067 12.9333C11.5574 12.9333 13.834 10.7423 13.834 7.79999C13.834 4.85767 11.5574 2.66666 8.50067 2.66666C5.4439 2.66666 3.16732 4.85767 3.16732 7.79999C3.16732 9.31326 3.76434 10.6481 4.81103 11.5843C5.19453 11.9235 5.42167 12.4055 5.43933 12.9215L5.67664 12.8167ZM8.50067 1.33333C12.2563 1.33333 15.1673 4.08433 15.1673 7.79999C15.1673 11.5157 12.2563 14.2667 8.50067 14.2667C7.84887 14.2682 7.1998 14.182 6.57098 14.0103C6.45271 13.9779 6.32686 13.9872 6.21465 14.0367L4.89165 14.6207C4.72932 14.6924 4.54194 14.6787 4.39178 14.5841C4.24162 14.4895 4.14836 14.3264 4.14298 14.149L4.10665 12.963C4.10171 12.8171 4.03698 12.6797 3.92765 12.583C2.63065 11.423 1.83398 9.74366 1.83398 7.79999C1.83398 4.08433 4.74499 1.33333 8.50067 1.33333ZM4.49732 9.691L6.45565 6.58433C6.60459 6.34806 6.84556 6.18485 7.12022 6.13419C7.39486 6.08354 7.6782 6.15007 7.90166 6.31766L9.45933 7.48433C9.60187 7.59186 9.7984 7.59186 9.941 7.48433L12.0447 5.88766C12.3253 5.67466 12.692 6.01066 12.504 6.309L10.5457 9.41566C10.3967 9.65193 10.1557 9.81513 9.88106 9.8658C9.6064 9.91646 9.32306 9.84993 9.09966 9.68233L7.542 8.51566C7.3994 8.40813 7.20286 8.40813 7.06032 8.51566L4.95665 10.1123C4.67598 10.3253 4.30932 9.98933 4.49732 9.691Z" fill="#FCFCFC"/>
</g>
</g>
<defs>
<clipPath id="clip0_6902_4411">
<rect width="16" height="16" fill="white" transform="translate(0.5)"/>
</clipPath>
<clipPath id="clip1_6902_4411">
<rect width="16" height="16" fill="white" transform="translate(0.5)"/>
</clipPath>
</defs>
</svg>
