<svg width="16" height="16" viewBox="0 0 16 16" fill="none" xmlns="http://www.w3.org/2000/svg">
<path d="M9.33329 9.50117V10.8945C8.72991 10.6812 8.08414 10.6157 7.45023 10.7037C6.81631 10.7917 6.21276 11.0304 5.69025 11.4C5.16773 11.7695 4.74152 12.259 4.4474 12.8274C4.15328 13.3958 3.99984 14.0265 3.99996 14.6665L2.66663 14.6658C2.66642 13.8518 2.85257 13.0484 3.21083 12.3174C3.56908 11.5864 4.08992 10.9471 4.73344 10.4485C5.37696 9.94993 6.12608 9.60526 6.92339 9.44093C7.72071 9.27661 8.54507 9.29698 9.33329 9.5005V9.50117ZM7.99996 8.6665C5.78996 8.6665 3.99996 6.8765 3.99996 4.6665C3.99996 2.4565 5.78996 0.666504 7.99996 0.666504C10.21 0.666504 12 2.4565 12 4.6665C12 6.8765 10.21 8.6665 7.99996 8.6665ZM7.99996 7.33317C9.47329 7.33317 10.6666 6.13984 10.6666 4.6665C10.6666 3.19317 9.47329 1.99984 7.99996 1.99984C6.52663 1.99984 5.33329 3.19317 5.33329 4.6665C5.33329 6.13984 6.52663 7.33317 7.99996 7.33317ZM11.862 13.2758L14.2186 10.9192L15.162 11.8618L11.862 15.1618L9.50463 12.8045L10.448 11.8618L11.8613 13.2758H11.862Z" fill="#FCFCFC"/>
</svg>
