<svg width="16" height="16" viewBox="0 0 16 16" fill="none" xmlns="http://www.w3.org/2000/svg">
<g clip-path="url(#clip0_6902_4404)">
<g clip-path="url(#clip1_6902_4404)">
<path d="M7.99998 13.3333C9.41447 13.3333 10.771 12.7714 11.7712 11.7712C12.7714 10.771 13.3333 9.41448 13.3333 8C13.3333 6.58551 12.7714 5.22895 11.7712 4.22876C10.771 3.22856 9.41447 2.66666 7.99998 2.66666C6.58549 2.66666 5.22894 3.22856 4.22874 4.22876C3.22855 5.22895 2.66665 6.58551 2.66665 8C2.66665 9.41448 3.22855 10.771 4.22874 11.7712C5.22894 12.7714 6.58549 13.3333 7.99998 13.3333ZM7.99998 14.6667C4.31798 14.6667 1.33331 11.682 1.33331 8C1.33331 4.318 4.31798 1.33333 7.99998 1.33333C11.682 1.33333 14.6666 4.318 14.6666 8C14.6666 11.682 11.682 14.6667 7.99998 14.6667ZM5.92665 8.77999L4.26131 8.26066C3.90131 8.15066 3.89931 7.90266 4.34198 7.72466L10.8306 5.218C11.2073 5.06466 11.4206 5.25866 11.2986 5.74466L10.194 10.958C10.1166 11.3293 9.89331 11.418 9.58331 11.2467L7.88265 9.988L7.08998 10.7533C7.00865 10.832 6.94265 10.8993 6.81731 10.916C6.69265 10.9333 6.58998 10.896 6.51465 10.6893L5.93465 8.77533L5.92665 8.78066V8.77999Z" fill="#FCFCFC"/>
</g>
</g>
<defs>
<clipPath id="clip0_6902_4404">
<rect width="16" height="16" fill="white"/>
</clipPath>
<clipPath id="clip1_6902_4404">
<rect width="16" height="16" fill="white"/>
</clipPath>
</defs>
</svg>
