<svg width="16" height="16" viewBox="0 0 16 16" fill="none" xmlns="http://www.w3.org/2000/svg">
<g clip-path="url(#clip0_4348_2243)">
<path d="M9.73334 5.33334H14C14.3536 5.33334 14.6928 5.47381 14.9428 5.72386C15.1929 5.97391 15.3333 6.31305 15.3333 6.66667V8.06934C15.3335 8.24358 15.2995 8.41616 15.2333 8.57734L13.17 13.5873C13.1197 13.7095 13.0342 13.8139 12.9244 13.8874C12.8146 13.9609 12.6854 14.0001 12.5533 14H1.33334C1.15653 14 0.986958 13.9298 0.861934 13.8047C0.73691 13.6797 0.666672 13.5101 0.666672 13.3333V6.66667C0.666672 6.48986 0.73691 6.32029 0.861934 6.19526C0.986958 6.07024 1.15653 6 1.33334 6H3.65467C3.7614 6.00003 3.86658 5.97443 3.96136 5.92536C4.05614 5.87629 4.13775 5.80517 4.19934 5.718L7.83467 0.566669C7.88063 0.501544 7.9484 0.455042 8.0257 0.435595C8.10299 0.416149 8.1847 0.425044 8.25601 0.460669L9.46534 1.06534C9.80567 1.23544 10.0776 1.51688 10.2358 1.86288C10.3941 2.20888 10.4292 2.59862 10.3353 2.96734L9.73334 5.33334ZM4.66667 7.05867V12.6667H12.1067L14 8.06934V6.66667H9.73334C9.53027 6.66664 9.32989 6.62023 9.14749 6.53097C8.96509 6.44172 8.80549 6.31198 8.68085 6.15166C8.55622 5.99134 8.46986 5.80466 8.42835 5.60588C8.38684 5.4071 8.39128 5.20147 8.44134 5.00467L9.04334 2.63934C9.06218 2.56555 9.05519 2.48755 9.02353 2.41829C8.99188 2.34903 8.93746 2.2927 8.86934 2.25867L8.42867 2.03867L5.28867 6.48667C5.12201 6.72267 4.90867 6.916 4.66667 7.05867ZM3.33334 7.33334H2.00001V12.6667H3.33334V7.33334Z" fill="#E0E0E0"/>
</g>
<defs>
<clipPath id="clip0_4348_2243">
<rect width="16" height="16" fill="white"/>
</clipPath>
</defs>
</svg>
