<svg width="16" height="16" viewBox="0 0 16 16" fill="none" xmlns="http://www.w3.org/2000/svg">
<g clip-path="url(#clip0_3609_8975)">
<path d="M13.9999 10V12H15.9999V13.3333H13.9999V15.3333H12.6666V13.3333H10.6666V12H12.6666V10H13.9999ZM14.0053 2C14.3706 2 14.6666 2.29667 14.6666 2.662V8.66667H13.3333V3.33333H2.66659V12.666L9.33325 6L11.3333 8V9.886L9.33325 7.886L4.55125 12.6667H9.33325V14H1.99459C1.81913 13.9998 1.65092 13.93 1.52691 13.8059C1.40291 13.6817 1.33325 13.5135 1.33325 13.338V2.662C1.33447 2.48692 1.40452 2.31934 1.52826 2.19548C1.652 2.07161 1.81951 2.0014 1.99459 2H14.0053ZM5.33325 4.66667C5.68687 4.66667 6.02601 4.80714 6.27606 5.05719C6.52611 5.30724 6.66659 5.64638 6.66659 6C6.66659 6.35362 6.52611 6.69276 6.27606 6.94281C6.02601 7.19286 5.68687 7.33333 5.33325 7.33333C4.97963 7.33333 4.64049 7.19286 4.39044 6.94281C4.14039 6.69276 3.99992 6.35362 3.99992 6C3.99992 5.64638 4.14039 5.30724 4.39044 5.05719C4.64049 4.80714 4.97963 4.66667 5.33325 4.66667Z" fill="#FCFCFC"/>
</g>
<defs>
<clipPath id="clip0_3609_8975">
<rect width="16" height="16" fill="white"/>
</clipPath>
</defs>
</svg>
