<svg width="24" height="24" viewBox="0 0 24 24" fill="none" xmlns="http://www.w3.org/2000/svg">
<g clip-path="url(#clip0_6728_61045)">
<path fill-rule="evenodd" clip-rule="evenodd" d="M21.6288 13.3332C21.2956 12.5113 21.2956 11.6001 21.6288 10.8009L21.7398 10.5344C22.4505 8.84556 21.6288 6.89125 19.9402 6.17941L19.6955 6.06833C18.8738 5.73507 18.2291 5.09113 17.8959 4.26838L17.8074 4.04621C17.075 2.35822 15.1427 1.55811 13.4325 2.24713L13.2104 2.33565C12.3887 2.66891 11.4776 2.66891 10.6559 2.33565L10.4563 2.24713C8.79032 1.55804 6.83535 2.37991 6.12475 4.06876L6.03624 4.24667C5.70305 5.06853 5.05922 5.71336 4.23663 6.04662L4.03706 6.13514C2.37021 6.84591 1.54852 8.8012 2.25914 10.4893L2.34765 10.6889C2.68085 11.5107 2.68085 12.422 2.34765 13.2212L2.25914 13.4659C1.5485 15.1548 2.34852 17.11 4.05876 17.7992L4.28089 17.8877C5.1026 18.2209 5.74731 18.8649 6.08051 19.6876L6.19157 19.9324C6.87967 21.6421 8.83449 22.4423 10.5222 21.7531L10.7669 21.6421C11.5886 21.3088 12.4997 21.3088 13.3214 21.6421L13.521 21.7306C15.2096 22.4414 17.1635 21.6195 17.8752 19.9306L17.9637 19.7527C18.2969 18.9309 18.9408 18.286 19.7633 17.9528L19.9412 17.886C21.6515 17.1752 22.4515 15.2426 21.7408 13.5309L21.6288 13.3332ZM11.0557 16.3325L6.72419 12.6893L8.05697 11.1115L10.811 13.4443L15.6752 7.66788L17.2527 9.00091L11.0557 16.3325Z" fill="#FCFCFC"/>
</g>
<defs>
<clipPath id="clip0_6728_61045">
<rect width="24" height="24" fill="white"/>
</clipPath>
</defs>
</svg>
