<svg width="16" height="17" viewBox="0 0 16 17" fill="none" xmlns="http://www.w3.org/2000/svg">
<g clip-path="url(#clip0_4289_21282)">
<path fill-rule="evenodd" clip-rule="evenodd" d="M14.4192 9.38876C14.197 8.84085 14.197 8.23335 14.4192 7.70055L14.4932 7.52293C14.967 6.39702 14.4192 5.09415 13.2935 4.61959L13.1303 4.54553C12.5825 4.32336 12.1527 3.89407 11.9306 3.34557L11.8716 3.19745C11.3834 2.07212 10.0951 1.53872 8.955 1.99807L8.80692 2.05708C8.25911 2.27925 7.65172 2.27925 7.10391 2.05708L6.97086 1.99807C5.86021 1.53867 4.55689 2.08659 4.08316 3.21249L4.02416 3.33109C3.80203 3.879 3.37281 4.30889 2.82441 4.53106L2.69137 4.59007C1.58013 5.06392 1.03234 6.36745 1.50609 7.49282L1.56509 7.62589C1.78723 8.1738 1.78723 8.78131 1.56509 9.3141L1.50609 9.47727C1.03233 10.6032 1.56567 11.9066 2.70583 12.3661L2.85392 12.4251C3.40173 12.6473 3.83153 13.0766 4.05367 13.6251L4.12771 13.7882C4.58644 14.928 5.88965 15.4615 7.01482 15.0021L7.17795 14.928C7.72576 14.7058 8.33315 14.7058 8.88096 14.928L9.014 14.987C10.1397 15.4609 11.4423 14.913 11.9168 13.7871L11.9758 13.6685C12.1979 13.1206 12.6272 12.6907 13.1756 12.4685L13.2941 12.4239C14.4343 11.9501 14.9677 10.6617 14.4939 9.52061L14.4192 9.38876ZM7.37049 11.3883L4.48279 8.95952L5.37131 7.90767L7.2073 9.46288L10.4501 5.6119L11.5018 6.50058L7.37049 11.3883Z" fill="#00D169"/>
</g>
<defs>
<clipPath id="clip0_4289_21282">
<rect width="16" height="16" fill="white" transform="translate(0 0.5)"/>
</clipPath>
</defs>
</svg>
