<svg width="18" height="17" viewBox="0 0 18 17" fill="none" xmlns="http://www.w3.org/2000/svg">
<path fill-rule="evenodd" clip-rule="evenodd" d="M16.4074 9.68249C16.1694 9.09535 16.1694 8.44434 16.4074 7.87338L16.4868 7.68304C16.9945 6.47651 16.4074 5.08033 15.2011 4.57178L15.0263 4.49242C14.4393 4.25434 13.9787 3.7943 13.7406 3.20652L13.6774 3.0478C13.1542 1.84188 11.7737 1.27028 10.552 1.76252L10.3933 1.82576C9.80623 2.06384 9.15534 2.06384 8.5683 1.82576L8.42573 1.76252C7.23553 1.27023 5.83888 1.85738 5.33122 3.06391L5.26799 3.19101C5.02995 3.77815 4.57 4.23883 3.98233 4.47691L3.83975 4.54015C2.64894 5.04793 2.06192 6.44481 2.56959 7.65078L2.63282 7.79338C2.87086 8.38053 2.87086 9.03154 2.63282 9.60249L2.56959 9.77734C2.06191 10.9839 2.63344 12.3807 3.85526 12.873L4.01395 12.9363C4.60099 13.1744 5.06157 13.6344 5.29961 14.2222L5.37896 14.397C5.87054 15.6184 7.26708 16.1901 8.47283 15.6978L8.64764 15.6184C9.23468 15.3804 9.88557 15.3804 10.4726 15.6184L10.6152 15.6817C11.8215 16.1895 13.2174 15.6023 13.7259 14.3958L13.7891 14.2687C14.0271 13.6815 14.4871 13.2209 15.0748 12.9828L15.2018 12.935C16.4237 12.4273 16.9952 11.0466 16.4875 9.82378L16.4074 9.68249ZM8.85399 11.8252L5.75949 9.22252L6.71164 8.09534L8.67911 9.76192L12.1542 5.63516L13.2811 6.58749L8.85399 11.8252Z" fill="#4F4F4F"/>
</svg>
