<svg width="16" height="16" viewBox="0 0 16 16" fill="none" xmlns="http://www.w3.org/2000/svg">
<g clip-path="url(#clip0_6902_4416)">
<g clip-path="url(#clip1_6902_4416)">
<path d="M4.83535 12.3293L5.31802 12.6113C6.13198 13.086 7.05774 13.3353 8.00002 13.3333C9.05485 13.3333 10.086 13.0205 10.9631 12.4345C11.8401 11.8485 12.5237 11.0155 12.9274 10.041C13.331 9.06643 13.4367 7.99408 13.2309 6.95951C13.0251 5.92495 12.5171 4.97464 11.7713 4.22876C11.0254 3.48288 10.0751 2.97493 9.0405 2.76914C8.00594 2.56335 6.93358 2.66897 5.95904 3.07264C4.9845 3.47631 4.15155 4.15989 3.56551 5.03695C2.97948 5.91402 2.66669 6.94516 2.66669 8C2.66669 8.95733 2.91802 9.87533 3.38935 10.6827L3.67069 11.1653L3.23535 12.766L4.83535 12.3293ZM1.33602 14.6667L2.23735 11.3547C1.64344 10.3366 1.33142 9.17866 1.33335 8C1.33335 4.318 4.31802 1.33333 8.00002 1.33333C11.682 1.33333 14.6667 4.318 14.6667 8C14.6667 11.682 11.682 14.6667 8.00002 14.6667C6.82187 14.6686 5.66446 14.3568 4.64669 13.7633L1.33602 14.6667ZM5.59402 4.87199C5.68335 4.86533 5.77335 4.86533 5.86269 4.86933C5.89869 4.87199 5.93469 4.876 5.97069 4.88C6.07669 4.892 6.19335 4.95666 6.23269 5.04599C6.43135 5.49666 6.62469 5.95066 6.81135 6.406C6.85269 6.50733 6.82802 6.63733 6.74935 6.764C6.69525 6.84965 6.63673 6.93243 6.57402 7.01199C6.49869 7.10866 6.33669 7.286 6.33669 7.286C6.33669 7.286 6.27069 7.36466 6.29602 7.46266C6.30535 7.5 6.33602 7.554 6.36402 7.59933L6.40335 7.66266C6.57402 7.94733 6.80335 8.236 7.08335 8.508C7.16335 8.58533 7.24135 8.66466 7.32535 8.73866C7.63735 9.014 7.99069 9.23866 8.37202 9.40533L8.37535 9.40666C8.43202 9.43133 8.46069 9.44466 8.54335 9.48C8.58469 9.49733 8.62735 9.51266 8.67069 9.524C8.71547 9.5354 8.76262 9.53325 8.80618 9.51782C8.84974 9.50239 8.88774 9.47438 8.91535 9.43733C9.39802 8.85266 9.44202 8.81466 9.44602 8.81466V8.816C9.47955 8.78472 9.51939 8.76098 9.56285 8.74638C9.60632 8.73178 9.65241 8.72664 9.69802 8.73133C9.73802 8.734 9.77869 8.74133 9.81602 8.758C10.17 8.92 10.7494 9.17266 10.7494 9.17266L11.1374 9.34666C11.2027 9.378 11.262 9.45199 11.264 9.52333C11.2667 9.568 11.2707 9.64 11.2554 9.772C11.234 9.94466 11.182 10.152 11.13 10.2607C11.0944 10.3348 11.0471 10.4028 10.99 10.462C10.9227 10.5326 10.8491 10.5969 10.77 10.654C10.7427 10.6746 10.7149 10.6946 10.6867 10.714C10.6038 10.7666 10.5186 10.8155 10.4314 10.8607C10.2597 10.9518 10.0701 11.0042 9.87602 11.014C9.75269 11.0207 9.62935 11.03 9.50535 11.0233C9.50002 11.0233 9.12669 10.9653 9.12669 10.9653C8.17885 10.716 7.30228 10.249 6.56669 9.60133C6.41602 9.46866 6.27669 9.32599 6.13402 9.184C5.54069 8.594 5.09269 7.95733 4.82069 7.356C4.68147 7.06085 4.60626 6.7396 4.60002 6.41333C4.59727 6.00856 4.72958 5.61444 4.97602 5.29333C5.02469 5.23066 5.07069 5.16533 5.15002 5.09C5.23469 5.01 5.28802 4.96733 5.34602 4.93799C5.42314 4.89935 5.50726 4.87667 5.59335 4.87133L5.59402 4.87199Z" fill="#FCFCFC"/>
</g>
</g>
<defs>
<clipPath id="clip0_6902_4416">
<rect width="16" height="16" fill="white"/>
</clipPath>
<clipPath id="clip1_6902_4416">
<rect width="16" height="16" fill="white"/>
</clipPath>
</defs>
</svg>
